<?xml version="1.0" standalone="no"?>
<!DOCTYPE svg PUBLIC "-//W3C//DTD SVG 20010904//EN"
 "http://www.w3.org/TR/2001/REC-SVG-20010904/DTD/svg10.dtd">
<svg version="1.0" xmlns="http://www.w3.org/2000/svg"
 width="270.000000pt" height="270.000000pt" viewBox="0 0 270.000000 270.000000"
 preserveAspectRatio="xMidYMid meet">
<metadata>
Created by potrace 1.14, written by Peter Selinger 2001-2017
</metadata>
<g transform="translate(0.000000,270.000000) scale(0.100000,-0.100000)"
fill="#000000" stroke="none">
<path d="M940 2483 c-76 -10 -89 -15 -106 -40 -27 -43 -27 -151 2 -247 24 -80
115 -264 160 -323 14 -18 22 -33 19 -33 -5 0 57 -85 89 -122 8 -9 23 -29 33
-45 9 -15 20 -30 23 -33 3 -3 24 -27 45 -55 22 -27 45 -55 50 -61 6 -6 28 -33
50 -59 22 -27 54 -63 70 -81 17 -17 54 -58 83 -89 50 -53 52 -58 35 -71 -10
-7 -21 -14 -25 -14 -4 0 -13 -6 -20 -13 -7 -6 -38 -25 -68 -41 -30 -16 -68
-38 -85 -50 -16 -12 -55 -34 -85 -50 -30 -16 -66 -37 -80 -47 -14 -9 -53 -32
-85 -50 -33 -18 -79 -45 -102 -61 -23 -15 -44 -28 -48 -28 -3 0 -46 -25 -96
-55 -50 -30 -93 -55 -96 -55 -3 0 -32 -18 -63 -39 -32 -22 -60 -38 -63 -35 -2
2 -10 -2 -17 -11 -7 -8 -21 -15 -30 -15 -10 0 -20 -4 -22 -8 -1 -5 -32 -26
-68 -47 -36 -21 -96 -57 -135 -81 -38 -23 -89 -51 -112 -63 -50 -25 -65 -43
-26 -30 16 5 64 21 108 35 44 15 85 27 90 29 6 1 37 10 70 20 33 11 62 19 65
20 3 0 19 5 35 12 17 6 77 26 135 43 58 18 134 42 170 55 l65 21 40 -21 c22
-11 69 -37 105 -56 36 -20 101 -55 145 -79 44 -24 194 -106 334 -182 140 -76
259 -137 265 -135 6 3 20 22 32 43 12 22 40 75 64 119 24 44 51 91 60 105 10
14 18 28 18 33 1 4 27 53 58 110 72 128 80 142 139 252 27 50 57 102 67 118
11 15 16 27 13 27 -3 0 2 12 13 28 10 15 39 65 64 112 57 107 88 164 175 321
91 164 88 156 53 174 -16 9 -33 15 -36 14 -4 0 -10 3 -13 8 -6 8 -18 15 -109
65 -31 17 -106 58 -167 93 -129 73 -187 105 -275 153 -36 19 -91 50 -123 68
-32 19 -60 34 -62 34 -2 0 -49 27 -105 60 -56 33 -104 60 -107 60 -3 0 -76 40
-162 89 -86 48 -182 102 -213 119 -63 34 -215 89 -238 85z m240 -251 c3 0 17
-6 32 -12 l27 -13 -34 -68 c-19 -37 -38 -70 -43 -73 -5 -3 -24 3 -43 14 -19
11 -48 27 -65 35 l-31 16 41 73 41 73 35 -22 c19 -12 37 -22 40 -23z m348
-188 c9 -7 -70 -141 -83 -141 -8 0 -15 4 -15 9 0 5 -4 6 -10 3 -5 -3 -10 -1
-10 5 0 6 -4 8 -10 5 -5 -3 -10 -2 -10 3 0 5 -18 17 -40 27 l-40 18 22 41 c12
23 30 56 41 73 l18 33 67 -37 c37 -20 69 -37 70 -39z m264 -151 l28 -14 -37
-69 c-40 -74 -40 -74 -104 -34 -20 13 -40 20 -43 17 -3 -4 -6 -1 -6 5 0 7 -7
12 -15 12 -21 0 -20 2 22 80 l36 69 46 -26 c25 -14 58 -33 73 -40z m269 -145
c7 -2 20 -9 30 -17 17 -13 15 -18 -19 -82 l-37 -67 -65 35 c-36 19 -68 37 -72
39 -6 4 23 63 59 121 l13 23 40 -25 c21 -14 45 -26 51 -27z m293 -151 c6 -4
20 -14 30 -21 22 -15 20 -20 -33 -113 l-24 -41 -51 27 c-28 15 -61 33 -73 39
l-21 12 25 47 c14 27 32 60 40 74 l16 26 40 -21 c23 -12 46 -25 51 -29z
m-1184 -732 c39 -19 70 -38 70 -42 0 -12 -65 -133 -71 -133 -4 0 -35 16 -69
35 -34 19 -66 35 -70 35 -7 0 60 140 68 140 1 0 34 -16 72 -35z m267 -136 c73
-40 96 -54 94 -62 -5 -26 -66 -134 -75 -133 -7 1 -33 14 -58 29 -26 15 -50 27
-55 27 -5 0 -14 5 -20 11 -8 8 -1 30 26 80 20 38 39 69 43 69 4 0 24 -9 45
-21z m279 -164 c12 -8 24 -12 26 -9 3 2 11 -2 18 -11 7 -8 18 -15 24 -15 6 0
19 -7 29 -14 18 -14 17 -16 -7 -55 -14 -22 -26 -44 -26 -48 0 -5 -7 -16 -15
-26 -13 -18 -17 -17 -82 19 -37 20 -70 39 -72 40 -5 5 69 134 77 134 4 0 17
-7 28 -15z"/>
<path d="M659 2218 c-1 -5 -2 -11 -3 -15 -1 -5 -12 -34 -24 -66 -31 -80 -28
-87 18 -42 22 21 40 48 40 60 -1 20 -28 76 -31 63z"/>
<path d="M702 1923 l-53 -55 17 -36 c9 -21 26 -52 37 -71 20 -33 21 -34 37
-14 9 11 36 33 60 48 25 15 46 28 47 29 7 5 -79 157 -87 155 -3 0 -29 -26 -58
-56z"/>
<path d="M900 1660 c-14 -11 -30 -24 -36 -29 -7 -6 -13 -8 -15 -7 -2 2 -14 -6
-26 -18 l-22 -21 45 -67 c24 -38 48 -68 52 -68 5 0 18 9 29 19 12 11 24 17 27
14 3 -4 6 -2 6 4 0 6 10 14 23 17 12 3 30 13 41 21 18 14 18 15 -3 42 -12 15
-35 47 -52 71 -16 23 -32 42 -37 42 -4 -1 -18 -10 -32 -20z"/>
<path d="M1109 1393 c-7 -8 -35 -26 -61 -39 l-49 -25 20 -27 c11 -15 38 -46
60 -70 l40 -43 71 36 c48 24 68 40 63 48 -20 34 -107 131 -119 133 -7 1 -19
-5 -25 -13z"/>
</g>
</svg>
